<?xml version="1.0" standalone="no"?>
<!DOCTYPE svg PUBLIC "-//W3C//DTD SVG 20000303 Stylable//EN"
"http://www.w3.org/TR/2000/03/WD-SVG-20000303/DTD/svg-20000303-stylable.dtd">
<!-- Title: wbgsql-act-b.lqn -->
<!-- Creator: C:\nico\util\lqn\LQN Solvers\lqn2ps.exe Version 3.10 -->
<!-- Thu Oct 26 14:44:26 2006 -->
<!-- For: vreen00 -->
<!-- Invoked as: C:\nico\util\lqn\LQN Solvers\lqn2ps.exe -Osvg wbgsql-act-b.lqn -->
<svg xmlns="http://www.w3.org/2000/svg" width="2.625in" height="3.875in" viewBox="0 0 4725 6975">
<desc>WBG SQL</desc>
<!-- Task Twbgsql2_client r Ewbgsql2_client -1 PClient -->
<polygon  fill="#e5e5e5" stroke="black" stroke-width="25" points="612.5,400 500,1525 2187.5,1525 2300,400 "/>
<polygon  fill="#e5e5e5" stroke="black" stroke-width="25" points="562.5,450 450,1575 2137.5,1575 2250,450 "/>
<text x="1350" y="1444" font-family="Times" font-style="Roman" font-size="225" text-anchor="middle">Twbgsql2_client {10}</text>
<!-- Entry Ewbgsql2_client s [1e-007] -->
<polyline  dash-array="100,25" stroke="black" stroke-width="25" fill="none" points="877.5,450 810,1125 1867.5,1125 1935,450 "/>
<text x="1373" y="975" font-family="Times" font-style="Roman" font-size="225" text-anchor="middle">[1e-007]</text>
<text x="1373" y="750" font-family="Times" font-style="Roman" font-size="225" text-anchor="middle">Ewbgsql2_client</text>
<!-- Call Ewbgsql2_client Ewbgsql2_cpu y (1) -->
<line x1="1372.5" y1="1125" x2="1856.25" y2="2925" dash-array="100,25" stroke="black" stroke-width="25"/>
<polygon fill="black" stroke="black" stroke-width="25" points="1856.25,2925 1865.61,2767.16 1823.81,2804.28 1769.03,2793.12 "/>
<text x="1735" y="2569" font-family="Times" font-style="Roman" font-size="225" text-anchor="middle">(1)</text>
<!-- Task Twbgsql_client r Ewbgsql_client -1 PClient -->
<polygon  fill="#e5e5e5" stroke="black" stroke-width="25" points="2637.5,400 2525,1525 4212.5,1525 4325,400 "/>
<polygon  fill="#e5e5e5" stroke="black" stroke-width="25" points="2587.5,450 2475,1575 4162.5,1575 4275,450 "/>
<text x="3375" y="1444" font-family="Times" font-style="Roman" font-size="225" text-anchor="middle">Twbgsql_client {10}</text>
<!-- Entry Ewbgsql_client s [1e-007] -->
<polyline  dash-array="100,25" stroke="black" stroke-width="25" fill="none" points="2902.5,450 2835,1125 3892.5,1125 3960,450 "/>
<text x="3398" y="975" font-family="Times" font-style="Roman" font-size="225" text-anchor="middle">[1e-007]</text>
<text x="3398" y="750" font-family="Times" font-style="Roman" font-size="225" text-anchor="middle">Ewbgsql_client</text>
<!-- Call Ewbgsql_client Ewbgsql_cpu y (1) -->
<line x1="3397.5" y1="1125" x2="2913.75" y2="2925" dash-array="100,25" stroke="black" stroke-width="25"/>
<polygon fill="black" stroke="black" stroke-width="25" points="2913.75,2925 3000.97,2793.12 2946.19,2804.28 2904.39,2767.16 "/>
<text x="3035" y="2569" font-family="Times" font-style="Roman" font-size="225" text-anchor="middle">(1)</text>
<text x="1913" y="6619" font-family="Times" font-style="Roman" font-size="225" text-anchor="middle"></text>
<!-- Task Twbgsql_cpu n Ewbgsql_cpu Ewbgsql2_cpu -1 PCPU -->
<polygon  fill="#e5e5e5" stroke="black" stroke-width="25" points="1361.25,2925 1248.75,4050 3363.75,4050 3476.25,2925 "/>
<text x="2363" y="3919" font-family="Times" font-style="Roman" font-size="225" text-anchor="middle">Twbgsql_cpu</text>
<!-- Entry Ewbgsql2_cpu s [0.0019] -->
<polyline  dash-array="100,25" stroke="black" stroke-width="25" fill="none" points="1293.75,3600 2351.25,3600 2418.75,2925 "/>
<text x="1856" y="3450" font-family="Times" font-style="Roman" font-size="225" text-anchor="middle">[0.0019]</text>
<text x="1856" y="3225" font-family="Times" font-style="Roman" font-size="225" text-anchor="middle">Ewbgsql2_cpu</text>
<!-- Call Ewbgsql2_cpu Ewbgsql_disk1 y (1) -->
<line x1="1856.25" y1="3600" x2="1372.5" y2="5400" dash-array="100,25" stroke="black" stroke-width="25"/>
<polygon fill="black" stroke="black" stroke-width="25" points="1372.5,5400 1459.72,5268.12 1404.94,5279.28 1363.14,5242.16 "/>
<text x="1493" y="5044" font-family="Times" font-style="Roman" font-size="225" text-anchor="middle">(1)</text>
<!-- Entry Ewbgsql_cpu s [0.003] -->
<line x1="2351.25" y1="3600" x2="3408.75" y2="3600" dash-array="100,25" stroke="black" stroke-width="25"/>
<text x="2914" y="3450" font-family="Times" font-style="Roman" font-size="225" text-anchor="middle">[0.003]</text>
<text x="2914" y="3225" font-family="Times" font-style="Roman" font-size="225" text-anchor="middle">Ewbgsql_cpu</text>
<!-- Call Ewbgsql_cpu Ewbgsql_disk0 y (1) -->
<line x1="2913.75" y1="3600" x2="3397.5" y2="5400" dash-array="100,25" stroke="black" stroke-width="25"/>
<polygon fill="black" stroke="black" stroke-width="25" points="3397.5,5400 3406.86,5242.16 3365.06,5279.28 3310.28,5268.12 "/>
<text x="3277" y="5044" font-family="Times" font-style="Roman" font-size="225" text-anchor="middle">(1)</text>
<text x="3510" y="6619" font-family="Times" font-style="Roman" font-size="225" text-anchor="middle"></text>
<!-- Task Twbgsql_disk1 n Ewbgsql_disk1 -1 PDisk1 -->
<polygon  fill="#e5e5e5" stroke="black" stroke-width="25" points="562.5,5400 450,6525 2137.5,6525 2250,5400 "/>
<text x="1350" y="6394" font-family="Times" font-style="Roman" font-size="225" text-anchor="middle">Twbgsql_disk1</text>
<!-- Entry Ewbgsql_disk1 s [0.0001] -->
<polyline  dash-array="100,25" stroke="black" stroke-width="25" fill="none" points="877.5,5400 810,6075 1867.5,6075 1935,5400 "/>
<text x="1373" y="5925" font-family="Times" font-style="Roman" font-size="225" text-anchor="middle">[0.0001]</text>
<text x="1373" y="5700" font-family="Times" font-style="Roman" font-size="225" text-anchor="middle">Ewbgsql_disk1</text>
<!-- Task Twbgsql_disk0 n Ewbgsql_disk0 -1 PDisk0 -->
<polygon  fill="#e5e5e5" stroke="black" stroke-width="25" points="2587.5,5400 2475,6525 4162.5,6525 4275,5400 "/>
<text x="3375" y="6394" font-family="Times" font-style="Roman" font-size="225" text-anchor="middle">Twbgsql_disk0</text>
<!-- Entry Ewbgsql_disk0 s [0.0001] -->
<polyline  dash-array="100,25" stroke="black" stroke-width="25" fill="none" points="2902.5,5400 2835,6075 3892.5,6075 3960,5400 "/>
<text x="3398" y="5925" font-family="Times" font-style="Roman" font-size="225" text-anchor="middle">[0.0001]</text>
<text x="3398" y="5700" font-family="Times" font-style="Roman" font-size="225" text-anchor="middle">Ewbgsql_disk0</text>
<text x="1913" y="6619" font-family="Times" font-style="Roman" font-size="225" text-anchor="middle"></text>
</svg>
